<svg xmlns="http://www.w3.org/2000/svg" viewBox="0 0 24 24" width="64" height="64" fill="none" stroke="currentColor" stroke-width="2" stroke-linecap="round" stroke-linejoin="round">
  <style>
    @media (prefers-color-scheme: dark) {
      .icon-bg { fill: #ffffff; }
      .icon-path { stroke: #111827; }
    }
    @media (prefers-color-scheme: light) {
      .icon-bg { fill: #111827; }
      .icon-path { stroke: #ffffff; }
    }
  </style>
  <rect class="icon-bg" x="0" y="0" width="24" height="24" rx="6" />
  <g class="icon-path" transform="scale(0.7) translate(5, 5)">
    <path d="M11 15h2a2 2 0 1 0 0-4h-3c-.6 0-1.1.2-1.4.6L3 17" />
    <path d="m7 21 1.6-1.4c.3-.4.8-.6 1.4-.6h4c1.1 0 2.1-.4 2.8-1.2l4.6-4.4a2 2 0 0 0-2.75-2.91l-4.2 3.9" />
    <path d="m2 16 6 6" />
    <circle cx="16" cy="9" r="2.9" />
    <circle cx="6" cy="5" r="3" />
  </g>
</svg>
